<?xml version="1.0" encoding="utf-8"?>
<svg xml:space="preserve" viewBox="0 0 100 100" y="0" x="0"
 xmlns="http://www.w3.org/2000/svg" id="圖層_1" version="1.1" width="200px" height="200px" xmlns:xlink="http://www.w3.org/1999/xlink" 
 style="width:100%;height:100%;background-size:initial;background-repeat-y:initial;background-repeat-x:initial;background-position-y:initial;background-position-x:initial;background-origin:initial;background-image:initial;background-color:rgb(255, 255, 255);background-clip:initial;background-attachment:initial;animation-play-state:paused" >
<g class="ldl-scale" style="transform-origin:50% 50%;transform:rotate(0deg) scale(0.8, 0.8);animation-play-state:paused" >
<path fill="#abbd81" d="M83.528 15.064H16.472c-4.955 0-8.972 4.135-8.972 9.09v34.944c0 4.955 4.017 8.854 8.972 8.854h43.756c2.117 8.5 7.991 14.431 16.216 16.983V67.953h7.083c4.955 0 8.972-3.899 8.972-8.854V24.154c.001-4.955-4.016-9.09-8.971-9.09z" style="fill:rgb(33, 37, 41);animation-play-state:paused" ></path>
<g>
<path fill="#f5e6c8" d="M55.957 29.435c-1.648-1.119-3.812-1.679-6.493-1.679-3.443 0-5.859.639-7.472 2.41-1.377 1.928-2.312 5.017.63 6.926.412.24 1.81.128 1.81.128.965-.162 1.691-.508 1.965-1.397.193-.627.456-1.108.789-1.444.572-.578 1.294-.865 2.167-.865.812 0 1.418.19 1.817.566.399.375.6.907.6 1.583 0 .676-.498 1.433-1.494 2.244-1.87 1.549-3.071 2.656-3.606 3.272a6.653 6.653 0 0 0-1.208 2.088c-.16.439-.272 1.717-.338 2.608-.044.594.427 1.298 1.023 1.298h4.255c.885 0 1.611-.83 1.828-1.688.079-.314.187-.796.324-1.046.326-.597 1.11-1.386 2.352-2.37 1.783-1.402 2.963-2.589 3.542-3.56.578-.971.867-1.98.867-3.025-.001-2.519-1.119-4.536-3.358-6.049z" style="fill:rgb(255, 255, 255);animation-play-state:paused" ></path>
<path fill="#f5e6c8" d="M50.964 49.064h-3.817a1.87 1.87 0 0 0-1.869 1.869v2.872a1.87 1.87 0 0 0 1.869 1.869h3.817a1.87 1.87 0 0 0 1.869-1.869v-2.872a1.87 1.87 0 0 0-1.869-1.869z" style="fill:rgb(255, 255, 255);animation-play-state:paused" ></path>

</g>


</g>




</svg>